<svg width="80" height="64" viewBox="0 0 80 64" fill="none" xmlns="http://www.w3.org/2000/svg">
<mask id="path-1-outside-1_86_643" maskUnits="userSpaceOnUse" x="2" y="2" width="75" height="28" fill="black">
<rect fill="white" x="2" y="2" width="75" height="28"/>
<path d="M14.456 12.648C13.6667 12.648 12.888 12.9893 12.12 13.672C11.352 14.3333 10.6587 15.2293 10.04 16.36C9.44267 17.4907 8.96267 18.76 8.6 20.168C8.23733 21.576 8.056 23.0267 8.056 24.52C8.056 25.6507 8.28 26.472 8.728 26.984C9.176 27.4747 9.76267 27.72 10.488 27.72C11.1707 27.72 11.864 27.5173 12.568 27.112C13.272 26.7067 13.9867 25.9707 14.712 24.904L15.352 25.16C14.9253 25.864 14.3707 26.5467 13.688 27.208C13.0267 27.8693 12.248 28.4133 11.352 28.84C10.4773 29.2453 9.48533 29.448 8.376 29.448C6.88267 29.448 5.656 29.0533 4.696 28.264C3.736 27.4533 3.256 26.2053 3.256 24.52C3.256 23.4747 3.416 22.376 3.736 21.224C4.07733 20.072 4.55733 18.952 5.176 17.864C5.79467 16.7547 6.552 15.7627 7.448 14.888C8.344 14.0133 9.35733 13.32 10.488 12.808C11.6187 12.2747 12.8453 12.008 14.168 12.008C15.3413 12.008 16.28 12.3067 16.984 12.904C17.7093 13.48 18.072 14.2053 18.072 15.08C18.072 15.656 17.9333 16.2213 17.656 16.776C17.3787 17.3093 16.9947 17.7573 16.504 18.12C16.0347 18.4613 15.5013 18.632 14.904 18.632C14.392 18.632 13.9547 18.472 13.592 18.152C13.2507 17.8107 13.08 17.352 13.08 16.776C13.08 15.9013 13.368 15.1547 13.944 14.536C14.5413 13.896 15.224 13.48 15.992 13.288C15.8213 13.0747 15.608 12.9147 15.352 12.808C15.1173 12.7013 14.8187 12.648 14.456 12.648ZM23.7485 29H19.2365L25.5725 7.656C25.7858 6.93067 25.7645 6.39733 25.5085 6.056C25.2525 5.71467 24.6018 5.544 23.5565 5.544L23.7485 4.872C25.2632 4.85067 26.6178 4.73333 27.8125 4.52C29.0072 4.28533 30.1378 3.96533 31.2045 3.56L23.7485 29ZM24.5485 24.36C25.4018 21.9067 26.1912 19.88 26.9165 18.28C27.6632 16.68 28.3885 15.4213 29.0925 14.504C29.7965 13.5867 30.5218 12.9467 31.2685 12.584C32.0152 12.2 32.8152 12.008 33.6685 12.008C34.7138 12.008 35.4498 12.232 35.8765 12.68C36.3245 13.128 36.5485 13.7253 36.5485 14.472C36.5485 15.1973 36.4098 15.9867 36.1325 16.84L32.9965 26.28C32.8045 26.856 32.7618 27.272 32.8685 27.528C32.9752 27.7627 33.1672 27.88 33.4445 27.88C33.7218 27.88 34.0205 27.7307 34.3405 27.432C34.6818 27.112 35.0445 26.4187 35.4285 25.352L36.0045 23.816H36.6125L35.8125 26.152C35.5138 27.048 35.1192 27.7307 34.6285 28.2C34.1592 28.6693 33.6472 28.9893 33.0925 29.16C32.5592 29.352 32.0365 29.448 31.5245 29.448C30.5005 29.448 29.7538 29.224 29.2845 28.776C28.8365 28.3067 28.6125 27.688 28.6125 26.92C28.6125 26.1307 28.7725 25.2773 29.0925 24.36L31.9405 15.72C32.0685 15.3573 32.1538 15.016 32.1965 14.696C32.2605 14.376 32.2498 14.12 32.1645 13.928C32.1005 13.7147 31.9192 13.608 31.6205 13.608C31.2152 13.608 30.7458 13.8747 30.2125 14.408C29.6792 14.9413 29.1245 15.688 28.5485 16.648C27.9938 17.608 27.4285 18.728 26.8525 20.008C26.2978 21.288 25.7538 22.664 25.2205 24.136C24.7085 25.608 24.2498 27.1227 23.8445 28.68L24.5485 24.36ZM45.6625 27.72C46.0038 27.72 46.3772 27.5387 46.7825 27.176C47.1878 26.8133 47.6038 26.2907 48.0305 25.608C48.4572 24.904 48.8732 24.0507 49.2785 23.048C49.6838 22.0453 50.0572 20.8827 50.3985 19.56L49.6945 23.048C49.1612 24.6267 48.5745 25.8853 47.9345 26.824C47.2945 27.7627 46.6118 28.4347 45.8865 28.84C45.1612 29.2453 44.4038 29.448 43.6145 29.448C42.4198 29.448 41.5238 29.096 40.9265 28.392C40.3292 27.688 40.0305 26.728 40.0305 25.512C40.0305 24.36 40.2225 23.1547 40.6065 21.896C41.0118 20.6373 41.5452 19.4213 42.2065 18.248C42.8892 17.0747 43.6465 16.0187 44.4785 15.08C45.3318 14.1413 46.2278 13.3947 47.1665 12.84C48.1265 12.2853 49.0652 12.008 49.9825 12.008C50.6865 12.008 51.2305 12.2853 51.6145 12.84C51.9985 13.3947 52.1158 14.2587 51.9665 15.432L51.6145 15.624C51.7212 14.856 51.6785 14.2587 51.4865 13.832C51.3158 13.4053 51.0172 13.192 50.5905 13.192C50.1638 13.192 49.6838 13.4373 49.1505 13.928C48.6385 14.4187 48.1265 15.0907 47.6145 15.944C47.1025 16.7973 46.6225 17.768 46.1745 18.856C45.7478 19.9227 45.4065 21.0533 45.1505 22.248C44.8945 23.4213 44.7665 24.584 44.7665 25.736C44.7665 26.4613 44.8412 26.9733 44.9905 27.272C45.1398 27.5707 45.3638 27.72 45.6625 27.72ZM52.4465 12.488C53.3638 12.4667 54.1958 12.424 54.9425 12.36C55.6892 12.2747 56.4038 12.1573 57.0865 12.008L52.8945 26.28C52.8305 26.5573 52.7772 26.824 52.7345 27.08C52.7132 27.3147 52.7452 27.5067 52.8305 27.656C52.9372 27.8053 53.1078 27.88 53.3425 27.88C53.6198 27.88 53.9292 27.72 54.2705 27.4C54.6118 27.0587 54.9638 26.376 55.3265 25.352L55.9025 23.816H56.5105L55.7105 26.152C55.4118 27.0267 55.0278 27.6987 54.5585 28.168C54.0892 28.6373 53.5878 28.968 53.0545 29.16C52.5212 29.352 51.9985 29.448 51.4865 29.448C50.3772 29.448 49.5878 29.1173 49.1185 28.456C48.7985 27.9867 48.6492 27.4107 48.6705 26.728C48.7132 26.024 48.8625 25.224 49.1185 24.328L52.4465 12.488ZM70.4983 12.648C70.0076 12.648 69.4849 12.9467 68.9303 13.544C68.3969 14.12 67.8636 14.8987 67.3303 15.88C66.8183 16.8613 66.3489 17.96 65.9223 19.176C65.5169 20.392 65.1863 21.6507 64.9303 22.952C64.6956 24.232 64.5783 25.4587 64.5783 26.632C64.5783 27.4 64.6636 27.9547 64.8343 28.296C65.0263 28.6373 65.3036 28.808 65.6663 28.808C66.1569 28.808 66.6689 28.5307 67.2023 27.976C67.7356 27.4 68.2583 26.632 68.7703 25.672C69.2823 24.712 69.7409 23.6347 70.1463 22.44C70.5729 21.224 70.9143 19.9653 71.1703 18.664C71.4263 17.3627 71.5543 16.104 71.5543 14.888C71.5543 13.992 71.4583 13.3947 71.2663 13.096C71.0956 12.7973 70.8396 12.648 70.4983 12.648ZM60.2903 24.168C60.2903 23.1867 60.4183 22.1413 60.6743 21.032C60.9516 19.9227 61.3676 18.8347 61.9223 17.768C62.4769 16.7013 63.1596 15.7413 63.9703 14.888C64.8023 14.0133 65.7729 13.32 66.8823 12.808C68.0129 12.2747 69.2716 12.008 70.6583 12.008C72.3009 12.008 73.5703 12.456 74.4663 13.352C75.3836 14.248 75.8423 15.56 75.8423 17.288C75.8423 18.2693 75.7036 19.3147 75.4263 20.424C75.1703 21.5333 74.7649 22.6213 74.2103 23.688C73.6556 24.7547 72.9623 25.7253 72.1303 26.6C71.3196 27.4533 70.3489 28.1467 69.2183 28.68C68.1089 29.192 66.8609 29.448 65.4743 29.448C63.8316 29.448 62.5516 29 61.6343 28.104C60.7383 27.208 60.2903 25.896 60.2903 24.168Z"/>
</mask>
<path d="M14.456 12.648C13.6667 12.648 12.888 12.9893 12.12 13.672C11.352 14.3333 10.6587 15.2293 10.04 16.36C9.44267 17.4907 8.96267 18.76 8.6 20.168C8.23733 21.576 8.056 23.0267 8.056 24.52C8.056 25.6507 8.28 26.472 8.728 26.984C9.176 27.4747 9.76267 27.72 10.488 27.72C11.1707 27.72 11.864 27.5173 12.568 27.112C13.272 26.7067 13.9867 25.9707 14.712 24.904L15.352 25.16C14.9253 25.864 14.3707 26.5467 13.688 27.208C13.0267 27.8693 12.248 28.4133 11.352 28.84C10.4773 29.2453 9.48533 29.448 8.376 29.448C6.88267 29.448 5.656 29.0533 4.696 28.264C3.736 27.4533 3.256 26.2053 3.256 24.52C3.256 23.4747 3.416 22.376 3.736 21.224C4.07733 20.072 4.55733 18.952 5.176 17.864C5.79467 16.7547 6.552 15.7627 7.448 14.888C8.344 14.0133 9.35733 13.32 10.488 12.808C11.6187 12.2747 12.8453 12.008 14.168 12.008C15.3413 12.008 16.28 12.3067 16.984 12.904C17.7093 13.48 18.072 14.2053 18.072 15.08C18.072 15.656 17.9333 16.2213 17.656 16.776C17.3787 17.3093 16.9947 17.7573 16.504 18.12C16.0347 18.4613 15.5013 18.632 14.904 18.632C14.392 18.632 13.9547 18.472 13.592 18.152C13.2507 17.8107 13.08 17.352 13.08 16.776C13.08 15.9013 13.368 15.1547 13.944 14.536C14.5413 13.896 15.224 13.48 15.992 13.288C15.8213 13.0747 15.608 12.9147 15.352 12.808C15.1173 12.7013 14.8187 12.648 14.456 12.648ZM23.7485 29H19.2365L25.5725 7.656C25.7858 6.93067 25.7645 6.39733 25.5085 6.056C25.2525 5.71467 24.6018 5.544 23.5565 5.544L23.7485 4.872C25.2632 4.85067 26.6178 4.73333 27.8125 4.52C29.0072 4.28533 30.1378 3.96533 31.2045 3.56L23.7485 29ZM24.5485 24.36C25.4018 21.9067 26.1912 19.88 26.9165 18.28C27.6632 16.68 28.3885 15.4213 29.0925 14.504C29.7965 13.5867 30.5218 12.9467 31.2685 12.584C32.0152 12.2 32.8152 12.008 33.6685 12.008C34.7138 12.008 35.4498 12.232 35.8765 12.68C36.3245 13.128 36.5485 13.7253 36.5485 14.472C36.5485 15.1973 36.4098 15.9867 36.1325 16.84L32.9965 26.28C32.8045 26.856 32.7618 27.272 32.8685 27.528C32.9752 27.7627 33.1672 27.88 33.4445 27.88C33.7218 27.88 34.0205 27.7307 34.3405 27.432C34.6818 27.112 35.0445 26.4187 35.4285 25.352L36.0045 23.816H36.6125L35.8125 26.152C35.5138 27.048 35.1192 27.7307 34.6285 28.2C34.1592 28.6693 33.6472 28.9893 33.0925 29.16C32.5592 29.352 32.0365 29.448 31.5245 29.448C30.5005 29.448 29.7538 29.224 29.2845 28.776C28.8365 28.3067 28.6125 27.688 28.6125 26.92C28.6125 26.1307 28.7725 25.2773 29.0925 24.36L31.9405 15.72C32.0685 15.3573 32.1538 15.016 32.1965 14.696C32.2605 14.376 32.2498 14.12 32.1645 13.928C32.1005 13.7147 31.9192 13.608 31.6205 13.608C31.2152 13.608 30.7458 13.8747 30.2125 14.408C29.6792 14.9413 29.1245 15.688 28.5485 16.648C27.9938 17.608 27.4285 18.728 26.8525 20.008C26.2978 21.288 25.7538 22.664 25.2205 24.136C24.7085 25.608 24.2498 27.1227 23.8445 28.68L24.5485 24.36ZM45.6625 27.72C46.0038 27.72 46.3772 27.5387 46.7825 27.176C47.1878 26.8133 47.6038 26.2907 48.0305 25.608C48.4572 24.904 48.8732 24.0507 49.2785 23.048C49.6838 22.0453 50.0572 20.8827 50.3985 19.56L49.6945 23.048C49.1612 24.6267 48.5745 25.8853 47.9345 26.824C47.2945 27.7627 46.6118 28.4347 45.8865 28.84C45.1612 29.2453 44.4038 29.448 43.6145 29.448C42.4198 29.448 41.5238 29.096 40.9265 28.392C40.3292 27.688 40.0305 26.728 40.0305 25.512C40.0305 24.36 40.2225 23.1547 40.6065 21.896C41.0118 20.6373 41.5452 19.4213 42.2065 18.248C42.8892 17.0747 43.6465 16.0187 44.4785 15.08C45.3318 14.1413 46.2278 13.3947 47.1665 12.84C48.1265 12.2853 49.0652 12.008 49.9825 12.008C50.6865 12.008 51.2305 12.2853 51.6145 12.84C51.9985 13.3947 52.1158 14.2587 51.9665 15.432L51.6145 15.624C51.7212 14.856 51.6785 14.2587 51.4865 13.832C51.3158 13.4053 51.0172 13.192 50.5905 13.192C50.1638 13.192 49.6838 13.4373 49.1505 13.928C48.6385 14.4187 48.1265 15.0907 47.6145 15.944C47.1025 16.7973 46.6225 17.768 46.1745 18.856C45.7478 19.9227 45.4065 21.0533 45.1505 22.248C44.8945 23.4213 44.7665 24.584 44.7665 25.736C44.7665 26.4613 44.8412 26.9733 44.9905 27.272C45.1398 27.5707 45.3638 27.72 45.6625 27.72ZM52.4465 12.488C53.3638 12.4667 54.1958 12.424 54.9425 12.36C55.6892 12.2747 56.4038 12.1573 57.0865 12.008L52.8945 26.28C52.8305 26.5573 52.7772 26.824 52.7345 27.08C52.7132 27.3147 52.7452 27.5067 52.8305 27.656C52.9372 27.8053 53.1078 27.88 53.3425 27.88C53.6198 27.88 53.9292 27.72 54.2705 27.4C54.6118 27.0587 54.9638 26.376 55.3265 25.352L55.9025 23.816H56.5105L55.7105 26.152C55.4118 27.0267 55.0278 27.6987 54.5585 28.168C54.0892 28.6373 53.5878 28.968 53.0545 29.16C52.5212 29.352 51.9985 29.448 51.4865 29.448C50.3772 29.448 49.5878 29.1173 49.1185 28.456C48.7985 27.9867 48.6492 27.4107 48.6705 26.728C48.7132 26.024 48.8625 25.224 49.1185 24.328L52.4465 12.488ZM70.4983 12.648C70.0076 12.648 69.4849 12.9467 68.9303 13.544C68.3969 14.12 67.8636 14.8987 67.3303 15.88C66.8183 16.8613 66.3489 17.96 65.9223 19.176C65.5169 20.392 65.1863 21.6507 64.9303 22.952C64.6956 24.232 64.5783 25.4587 64.5783 26.632C64.5783 27.4 64.6636 27.9547 64.8343 28.296C65.0263 28.6373 65.3036 28.808 65.6663 28.808C66.1569 28.808 66.6689 28.5307 67.2023 27.976C67.7356 27.4 68.2583 26.632 68.7703 25.672C69.2823 24.712 69.7409 23.6347 70.1463 22.44C70.5729 21.224 70.9143 19.9653 71.1703 18.664C71.4263 17.3627 71.5543 16.104 71.5543 14.888C71.5543 13.992 71.4583 13.3947 71.2663 13.096C71.0956 12.7973 70.8396 12.648 70.4983 12.648ZM60.2903 24.168C60.2903 23.1867 60.4183 22.1413 60.6743 21.032C60.9516 19.9227 61.3676 18.8347 61.9223 17.768C62.4769 16.7013 63.1596 15.7413 63.9703 14.888C64.8023 14.0133 65.7729 13.32 66.8823 12.808C68.0129 12.2747 69.2716 12.008 70.6583 12.008C72.3009 12.008 73.5703 12.456 74.4663 13.352C75.3836 14.248 75.8423 15.56 75.8423 17.288C75.8423 18.2693 75.7036 19.3147 75.4263 20.424C75.1703 21.5333 74.7649 22.6213 74.2103 23.688C73.6556 24.7547 72.9623 25.7253 72.1303 26.6C71.3196 27.4533 70.3489 28.1467 69.2183 28.68C68.1089 29.192 66.8609 29.448 65.4743 29.448C63.8316 29.448 62.5516 29 61.6343 28.104C60.7383 27.208 60.2903 25.896 60.2903 24.168Z" fill="#030711"/>
<path d="M12.12 13.672L12.4463 14.0509L12.4522 14.0457L12.12 13.672ZM10.04 16.36L9.60132 16.12L9.5979 16.1264L10.04 16.36ZM8.6 20.168L9.0842 20.2927L8.6 20.168ZM8.728 26.984L8.35163 27.3133L8.35876 27.3211L8.728 26.984ZM12.568 27.112L12.8175 27.5453L12.568 27.112ZM14.712 24.904L14.8977 24.4398L14.5245 24.2905L14.2985 24.6228L14.712 24.904ZM15.352 25.16L15.7796 25.4192L16.0853 24.9148L15.5377 24.6958L15.352 25.16ZM13.688 27.208L13.3401 26.8488L13.3344 26.8544L13.688 27.208ZM11.352 28.84L11.5622 29.2937L11.567 29.2914L11.352 28.84ZM4.696 28.264L4.37338 28.646L4.37845 28.6502L4.696 28.264ZM3.736 21.224L3.25653 21.0819L3.25424 21.0902L3.736 21.224ZM5.176 17.864L5.61066 18.1112L5.61268 18.1075L5.176 17.864ZM7.448 14.888L7.79727 15.2458L7.448 14.888ZM10.488 12.808L10.6943 13.2635L10.7013 13.2602L10.488 12.808ZM16.984 12.904L16.6605 13.2853L16.6667 13.2905L16.6731 13.2956L16.984 12.904ZM17.656 16.776L18.0997 17.0067L18.1032 16.9996L17.656 16.776ZM16.504 18.12L16.7981 18.5244L16.8012 18.5221L16.504 18.12ZM13.592 18.152L13.2384 18.5056L13.2495 18.5166L13.2612 18.5269L13.592 18.152ZM13.944 14.536L13.5785 14.1948L13.5781 14.1953L13.944 14.536ZM15.992 13.288L16.1133 13.7731L16.8692 13.5841L16.3824 12.9757L15.992 13.288ZM15.352 12.808L15.1451 13.2632L15.1523 13.2665L15.1597 13.2695L15.352 12.808ZM14.456 12.148C13.511 12.148 12.6191 12.5594 11.7878 13.2983L12.4522 14.0457C13.1569 13.4193 13.8223 13.148 14.456 13.148V12.148ZM11.7937 13.2931C10.9698 14.0026 10.2414 14.9503 9.60137 16.12L10.4786 16.6C11.076 15.5083 11.7342 14.664 12.4463 14.0509L11.7937 13.2931ZM9.5979 16.1264C8.98005 17.2959 8.48691 18.6025 8.1158 20.0433L9.0842 20.2927C9.43843 18.9175 9.90528 17.6854 10.4821 16.5936L9.5979 16.1264ZM8.1158 20.0433C7.74236 21.4931 7.556 22.9857 7.556 24.52H8.556C8.556 23.0676 8.73231 21.6589 9.0842 20.2927L8.1158 20.0433ZM7.556 24.52C7.556 25.6973 7.78574 26.6664 8.35171 27.3133L9.10429 26.6547C8.77426 26.2776 8.556 25.604 8.556 24.52H7.556ZM8.35876 27.3211C8.91078 27.9257 9.63656 28.22 10.488 28.22V27.22C9.88877 27.22 9.44122 27.0236 9.09724 26.6469L8.35876 27.3211ZM10.488 28.22C11.2735 28.22 12.0521 27.986 12.8175 27.5453L12.3185 26.6787C11.6759 27.0487 11.0678 27.22 10.488 27.22V28.22ZM12.8175 27.5453C13.6143 27.0865 14.38 26.2815 15.1255 25.1852L14.2985 24.6228C13.5934 25.6599 12.9297 26.3268 12.3185 26.6787L12.8175 27.5453ZM14.5263 25.3682L15.1663 25.6242L15.5377 24.6958L14.8977 24.4398L14.5263 25.3682ZM14.9244 24.9008C14.523 25.5631 13.9967 26.2128 13.3401 26.8489L14.0359 27.5671C14.7447 26.8805 15.3276 26.1649 15.7796 25.4192L14.9244 24.9008ZM13.3344 26.8544C12.7158 27.4731 11.9848 27.9849 11.137 28.3886L11.567 29.2914C12.5112 28.8418 13.3375 28.2656 14.0416 27.5616L13.3344 26.8544ZM11.1418 28.3863C10.3422 28.7569 9.42364 28.948 8.376 28.948V29.948C9.54703 29.948 10.6125 29.7338 11.5622 29.2937L11.1418 28.3863ZM8.376 28.948C6.97422 28.948 5.86696 28.5795 5.01355 27.8778L4.37845 28.6502C5.44504 29.5272 6.79111 29.948 8.376 29.948V28.948ZM5.01859 27.882C4.20626 27.196 3.756 26.1113 3.756 24.52H2.756C2.756 26.2993 3.26574 27.7106 4.37341 28.646L5.01859 27.882ZM3.756 24.52C3.756 23.5258 3.90816 22.4724 4.21776 21.3578L3.25424 21.0902C2.92384 22.2796 2.756 23.4235 2.756 24.52H3.756ZM4.2154 21.366C4.54544 20.2522 5.01008 19.1673 5.61065 18.1112L4.74136 17.6168C4.10459 18.7367 3.60923 19.8918 3.2566 21.082L4.2154 21.366ZM5.61268 18.1075C6.20821 17.0397 6.93626 16.0863 7.79727 15.2458L7.09873 14.5302C6.16774 15.439 5.38112 16.4696 4.73932 17.6205L5.61268 18.1075ZM7.79727 15.2458C8.65202 14.4114 9.61705 13.7513 10.6943 13.2635L10.2817 12.3525C9.09761 12.8887 8.03598 13.6153 7.09873 14.5302L7.79727 15.2458ZM10.7013 13.2602C11.7614 12.7602 12.9147 12.508 14.168 12.508V11.508C12.776 11.508 11.4759 11.7892 10.2747 12.3558L10.7013 13.2602ZM14.168 12.508C15.2558 12.508 16.0691 12.7835 16.6605 13.2853L17.3075 12.5227C16.4909 11.8299 15.4269 11.508 14.168 11.508V12.508ZM16.6731 13.2956C17.2871 13.7832 17.572 14.3679 17.572 15.08H18.572C18.572 14.0427 18.1316 13.1768 17.2949 12.5124L16.6731 13.2956ZM17.572 15.08C17.572 15.5725 17.4541 16.0617 17.2088 16.5524L18.1032 16.9996C18.4125 16.3809 18.572 15.7395 18.572 15.08H17.572ZM17.2124 16.5453C16.9707 17.0101 16.6372 17.3998 16.2068 17.7179L16.8012 18.5221C17.3521 18.1149 17.7866 17.6086 18.0996 17.0067L17.2124 16.5453ZM16.2099 17.7156C15.8287 17.9929 15.399 18.132 14.904 18.132V19.132C15.6037 19.132 16.2407 18.9298 16.7981 18.5244L16.2099 17.7156ZM14.904 18.132C14.506 18.132 14.1885 18.0115 13.9228 17.7771L13.2612 18.5269C13.7209 18.9325 14.278 19.132 14.904 19.132V18.132ZM13.9456 17.7984C13.7158 17.5687 13.58 17.2469 13.58 16.776H12.58C12.58 17.4571 12.7856 18.0527 13.2384 18.5056L13.9456 17.7984ZM13.58 16.776C13.58 16.0229 13.8234 15.3993 14.3099 14.8767L13.5781 14.1953C12.9126 14.91 12.58 15.7798 12.58 16.776H13.58ZM14.3095 14.8772C14.8483 14.2999 15.4486 13.9392 16.1133 13.7731L15.8707 12.8029C14.9994 13.0208 14.2344 13.4921 13.5785 14.1948L14.3095 14.8772ZM16.3824 12.9757C16.1585 12.6957 15.8766 12.4849 15.5443 12.3465L15.1597 13.2695C15.3394 13.3444 15.4842 13.4536 15.6016 13.6003L16.3824 12.9757ZM15.5589 12.3528C15.2385 12.2072 14.863 12.148 14.456 12.148V13.148C14.7744 13.148 14.9962 13.1955 15.1451 13.2632L15.5589 12.3528ZM23.7485 29V29.5H24.123L24.2283 29.1406L23.7485 29ZM19.2365 29L18.7572 28.8577L18.5665 29.5H19.2365V29ZM25.5725 7.656L26.0518 7.79829L26.0522 7.79708L25.5725 7.656ZM25.5085 6.056L25.1085 6.356V6.356L25.5085 6.056ZM23.5565 5.544L23.0757 5.40664L22.8936 6.044H23.5565V5.544ZM23.7485 4.872L23.7415 4.37205L23.3698 4.37728L23.2677 4.73464L23.7485 4.872ZM27.8125 4.52L27.9004 5.01229L27.9089 5.01062L27.8125 4.52ZM31.2045 3.56L31.6843 3.70063L31.9672 2.73527L31.0269 3.09261L31.2045 3.56ZM24.5485 24.36L24.0763 24.1957L24.062 24.2367L24.055 24.2796L24.5485 24.36ZM26.9165 18.28L26.4634 18.0685L26.4611 18.0736L26.9165 18.28ZM29.0925 14.504L29.4892 14.8084V14.8084L29.0925 14.504ZM31.2685 12.584L31.487 13.0339L31.4972 13.0286L31.2685 12.584ZM35.8765 12.68L35.5143 13.0249L35.5229 13.0336L35.8765 12.68ZM36.1325 16.84L36.607 16.9976L36.608 16.9945L36.1325 16.84ZM32.9965 26.28L33.4708 26.4381L33.471 26.4376L32.9965 26.28ZM32.8685 27.528L32.407 27.7203L32.41 27.7277L32.4133 27.7349L32.8685 27.528ZM34.3405 27.432L34.6817 27.7975L34.6825 27.7968L34.3405 27.432ZM35.4285 25.352L34.9603 25.1764L34.9581 25.1826L35.4285 25.352ZM36.0045 23.816V23.316H35.658L35.5363 23.6404L36.0045 23.816ZM36.6125 23.816L37.0855 23.978L37.3122 23.316H36.6125V23.816ZM35.8125 26.152L35.3395 25.99L35.3382 25.9939L35.8125 26.152ZM34.6285 28.2L34.2828 27.8386L34.2749 27.8464L34.6285 28.2ZM33.0925 29.16L32.9455 28.6821L32.9342 28.6856L32.9231 28.6896L33.0925 29.16ZM29.2845 28.776L28.9228 29.1212L28.9309 29.1296L28.9393 29.1377L29.2845 28.776ZM29.0925 24.36L29.5647 24.5247L29.5674 24.5165L29.0925 24.36ZM31.9405 15.72L31.4689 15.5536L31.4656 15.5635L31.9405 15.72ZM32.1965 14.696L31.7062 14.5979L31.703 14.6138L31.7009 14.6299L32.1965 14.696ZM32.1645 13.928L31.6856 14.0717L31.6947 14.1021L31.7076 14.1311L32.1645 13.928ZM28.5485 16.648L28.1197 16.3907L28.1156 16.3979L28.5485 16.648ZM26.8525 20.008L26.3965 19.8028L26.3937 19.8092L26.8525 20.008ZM25.2205 24.136L24.7504 23.9657L24.7483 23.9717L25.2205 24.136ZM23.8445 28.68L23.351 28.5996L24.3284 28.8059L23.8445 28.68ZM23.7485 28.5H19.2365V29.5H23.7485V28.5ZM19.7158 29.1423L26.0518 7.79829L25.0932 7.51371L18.7572 28.8577L19.7158 29.1423ZM26.0522 7.79708C26.2769 7.03305 26.3125 6.29463 25.9085 5.756L25.1085 6.356C25.2165 6.50003 25.2948 6.82828 25.0928 7.51491L26.0522 7.79708ZM25.9085 5.756C25.6835 5.45603 25.3308 5.28684 24.9554 5.18836C24.5724 5.08791 24.1011 5.044 23.5565 5.044V6.044C24.0572 6.044 24.4339 6.08542 24.7016 6.15564C24.9769 6.22782 25.0775 6.31463 25.1085 6.356L25.9085 5.756ZM24.0373 5.68136L24.2293 5.00936L23.2677 4.73464L23.0757 5.40664L24.0373 5.68136ZM23.7555 5.37195C25.291 5.35032 26.6734 5.23131 27.9004 5.01221L27.7246 4.02778C26.5622 4.23535 25.2354 4.35101 23.7415 4.37205L23.7555 5.37195ZM27.9089 5.01062C29.1294 4.77088 30.2874 4.44339 31.3821 4.02739L31.0269 3.09261C29.9883 3.48728 28.8849 3.79979 27.7161 4.02937L27.9089 5.01062ZM30.7247 3.41937L23.2687 28.8594L24.2283 29.1406L31.6843 3.70063L30.7247 3.41937ZM25.0207 24.5243C25.8712 22.0792 26.655 20.0678 27.3719 18.4864L26.4611 18.0736C25.7273 19.6922 24.9325 21.7342 24.0763 24.1957L25.0207 24.5243ZM27.3696 18.4914C28.108 16.9091 28.8156 15.686 29.4892 14.8084L28.6958 14.1996C27.9614 15.1566 27.2183 16.4509 26.4634 18.0686L27.3696 18.4914ZM29.4892 14.8084C30.1634 13.9299 30.8321 13.3518 31.487 13.0338L31.05 12.1342C30.2116 12.5415 29.4296 13.2434 28.6958 14.1996L29.4892 14.8084ZM31.4972 13.0286C32.1719 12.6816 32.8934 12.508 33.6685 12.508V11.508C32.737 11.508 31.8584 11.7184 31.0398 12.1394L31.4972 13.0286ZM33.6685 12.508C34.6663 12.508 35.2298 12.726 35.5144 13.0248L36.2386 12.3352C35.6699 11.738 34.7613 11.508 33.6685 11.508V12.508ZM35.5229 13.0336C35.8606 13.3712 36.0485 13.8325 36.0485 14.472H37.0485C37.0485 13.6182 36.7884 12.8848 36.2301 12.3264L35.5229 13.0336ZM36.0485 14.472C36.0485 15.1341 35.9218 15.8707 35.657 16.6855L36.608 16.9945C36.8979 16.1026 37.0485 15.2605 37.0485 14.472H36.0485ZM35.658 16.6824L32.522 26.1224L33.471 26.4376L36.607 16.9976L35.658 16.6824ZM32.5222 26.1219C32.4193 26.4305 32.3494 26.7162 32.3231 26.973C32.2972 27.2251 32.3094 27.4862 32.407 27.7203L33.33 27.3357C33.3209 27.3138 33.3011 27.2389 33.3179 27.075C33.3342 26.9158 33.3817 26.7055 33.4708 26.4381L32.5222 26.1219ZM32.4133 27.7349C32.5018 27.9296 32.6385 28.1005 32.8318 28.2186C33.0227 28.3353 33.2352 28.38 33.4445 28.38V27.38C33.3765 27.38 33.3543 27.366 33.3532 27.3654C33.3518 27.3645 33.3496 27.363 33.3458 27.3585C33.3416 27.3536 33.3334 27.3425 33.3237 27.3211L32.4133 27.7349ZM33.4445 28.38C33.9045 28.38 34.3204 28.1347 34.6817 27.7975L33.9993 27.0665C33.7206 27.3266 33.5391 27.38 33.4445 27.38V28.38ZM34.6825 27.7968C34.9124 27.5812 35.1193 27.2714 35.3116 26.9037C35.5069 26.5302 35.7023 26.0675 35.8989 25.5214L34.9581 25.1826C34.7707 25.7032 34.5927 26.1205 34.4255 26.4403C34.2551 26.766 34.1099 26.9628 33.9985 27.0672L34.6825 27.7968ZM35.8967 25.5276L36.4727 23.9916L35.5363 23.6404L34.9603 25.1764L35.8967 25.5276ZM36.0045 24.316H36.6125V23.316H36.0045V24.316ZM36.1395 23.654L35.3395 25.99L36.2855 26.314L37.0855 23.978L36.1395 23.654ZM35.3382 25.9939C35.0557 26.8412 34.6963 27.4432 34.2829 27.8387L34.9741 28.5613C35.542 28.0181 35.972 27.2548 36.2868 26.3101L35.3382 25.9939ZM34.2749 27.8464C33.8549 28.2665 33.4116 28.5387 32.9455 28.6821L33.2395 29.6379C33.8827 29.44 34.4634 29.0722 34.9821 28.5536L34.2749 27.8464ZM32.9231 28.6896C32.4383 28.8641 31.9729 28.948 31.5245 28.948V29.948C32.1001 29.948 32.68 29.8399 33.2619 29.6304L32.9231 28.6896ZM31.5245 28.948C30.5576 28.948 29.9648 28.7341 29.6297 28.4143L28.9393 29.1377C29.5429 29.7139 30.4434 29.948 31.5245 29.948V28.948ZM29.6462 28.4308C29.303 28.0712 29.1125 27.5846 29.1125 26.92H28.1125C28.1125 27.7914 28.37 28.5421 28.9228 29.1212L29.6462 28.4308ZM29.1125 26.92C29.1125 26.198 29.259 25.4008 29.5646 24.5247L28.6204 24.1953C28.286 25.1538 28.1125 26.0634 28.1125 26.92H29.1125ZM29.5674 24.5165L32.4154 15.8765L31.4656 15.5635L28.6176 24.2035L29.5674 24.5165ZM32.412 15.8864C32.5494 15.4972 32.6441 15.122 32.6921 14.7621L31.7009 14.6299C31.6635 14.91 31.5876 15.2175 31.469 15.5536L32.412 15.8864ZM32.6868 14.7941C32.7606 14.4249 32.7662 14.0506 32.6214 13.7249L31.7076 14.1311C31.7335 14.1894 31.7604 14.3271 31.7062 14.5979L32.6868 14.7941ZM32.6434 13.7843C32.5775 13.5647 32.4401 13.3783 32.234 13.257C32.0408 13.1434 31.8236 13.108 31.6205 13.108V14.108C31.6662 14.108 31.6963 14.1121 31.714 14.1161C31.7314 14.12 31.7336 14.1228 31.727 14.119C31.7193 14.1144 31.7079 14.1055 31.6977 14.0922C31.6878 14.0793 31.6852 14.0703 31.6856 14.0717L32.6434 13.7843ZM31.6205 13.108C31.0067 13.108 30.4135 13.4999 29.8589 14.0544L30.5661 14.7616C31.0782 14.2494 31.4236 14.108 31.6205 14.108V13.108ZM29.8589 14.0544C29.2864 14.627 28.7077 15.4109 28.1198 16.3908L28.9772 16.9052C29.5413 15.9651 30.0719 15.2557 30.5661 14.7616L29.8589 14.0544ZM28.1156 16.3979C27.5506 17.3757 26.9777 18.5113 26.3965 19.8028L27.3085 20.2132C27.8793 18.9447 28.4371 17.8403 28.9814 16.8981L28.1156 16.3979ZM26.3937 19.8092C25.8345 21.0996 25.2868 22.4852 24.7504 23.9657L25.6906 24.3063C26.2209 22.8428 26.7611 21.4764 27.3113 20.2068L26.3937 19.8092ZM24.7483 23.9717C24.2317 25.4568 23.7692 26.9842 23.3606 28.5541L24.3284 28.8059C24.7305 27.2611 25.1853 25.7592 25.6927 24.3003L24.7483 23.9717ZM24.338 28.7604L25.042 24.4404L24.055 24.2796L23.351 28.5996L24.338 28.7604ZM46.7825 27.176L46.4491 26.8034L46.7825 27.176ZM48.0305 25.608L48.4545 25.873L48.4581 25.8672L48.0305 25.608ZM49.2785 23.048L49.7421 23.2354L49.2785 23.048ZM50.3985 19.56L50.8886 19.6589L49.9144 19.4351L50.3985 19.56ZM49.6945 23.048L50.1682 23.208L50.1783 23.178L50.1846 23.1469L49.6945 23.048ZM47.9345 26.824L47.5214 26.5423L47.9345 26.824ZM45.8865 28.84L46.1304 29.2765L45.8865 28.84ZM40.9265 28.392L40.5452 28.7155L40.9265 28.392ZM40.6065 21.896L40.1305 21.7427L40.1283 21.7501L40.6065 21.896ZM42.2065 18.248L41.7743 17.9965L41.7709 18.0025L42.2065 18.248ZM44.4785 15.08L44.1085 14.7436L44.1043 14.7483L44.4785 15.08ZM47.1665 12.84L46.9164 12.407L46.9121 12.4095L47.1665 12.84ZM51.6145 12.84L51.2034 13.1246L51.6145 12.84ZM51.9665 15.432L52.2059 15.8709L52.4302 15.7486L52.4625 15.4951L51.9665 15.432ZM51.6145 15.624L51.1193 15.5552L50.9827 16.5381L51.8539 16.0629L51.6145 15.624ZM51.4865 13.832L51.0223 14.0177L51.0262 14.0275L51.0305 14.0372L51.4865 13.832ZM49.1505 13.928L48.8119 13.56L48.8045 13.567L49.1505 13.928ZM46.1745 18.856L45.7121 18.6656L45.7103 18.6703L46.1745 18.856ZM45.1505 22.248L45.639 22.3546L45.6394 22.3528L45.1505 22.248ZM44.9905 27.272L45.4377 27.0484L44.9905 27.272ZM52.4465 12.488L52.4349 11.9881L52.0652 11.9967L51.9652 12.3527L52.4465 12.488ZM54.9425 12.36L54.9852 12.8582L54.9922 12.8576L54.9993 12.8568L54.9425 12.36ZM57.0865 12.008L57.5662 12.1489L57.8041 11.3392L56.9797 11.5195L57.0865 12.008ZM52.8945 26.28L52.4148 26.1391L52.4106 26.1532L52.4073 26.1676L52.8945 26.28ZM52.7345 27.08L52.2413 26.9978L52.2382 27.0162L52.2366 27.0347L52.7345 27.08ZM52.8305 27.656L52.3964 27.9041L52.4089 27.926L52.4236 27.9466L52.8305 27.656ZM54.2705 27.4L54.6125 27.7648L54.6184 27.7593L54.6241 27.7536L54.2705 27.4ZM55.3265 25.352L54.8583 25.1764L54.8552 25.1851L55.3265 25.352ZM55.9025 23.816V23.316H55.556L55.4343 23.6404L55.9025 23.816ZM56.5105 23.816L56.9835 23.978L57.2102 23.316H56.5105V23.816ZM55.7105 26.152L55.2375 25.99L55.2373 25.9904L55.7105 26.152ZM54.5585 28.168L54.2049 27.8144L54.5585 28.168ZM53.0545 29.16L53.2239 29.6304L53.0545 29.16ZM49.1185 28.456L48.7053 28.7377L48.7107 28.7454L49.1185 28.456ZM48.6705 26.728L48.1714 26.6978L48.171 26.7051L48.1707 26.7124L48.6705 26.728ZM49.1185 24.328L49.5993 24.4654L49.5998 24.4633L49.1185 24.328ZM45.6625 28.22C46.1819 28.22 46.6705 27.9471 47.1159 27.5486L46.4491 26.8034C46.0838 27.1302 45.8258 27.22 45.6625 27.22V28.22ZM47.1159 27.5486C47.5688 27.1434 48.0136 26.5784 48.4545 25.873L47.6065 25.343C47.194 26.0029 46.8069 26.4833 46.4491 26.8034L47.1159 27.5486ZM48.4581 25.8672C48.9022 25.1344 49.3296 24.2557 49.7421 23.2354L48.8149 22.8606C48.4167 23.8457 48.0121 24.6736 47.6029 25.3488L48.4581 25.8672ZM49.7421 23.2354C50.1574 22.2079 50.5372 21.0236 50.8826 19.6849L49.9144 19.4351C49.5772 20.7417 49.2102 21.8828 48.8149 22.8606L49.7421 23.2354ZM49.9084 19.4611L49.2044 22.9491L50.1846 23.1469L50.8886 19.6589L49.9084 19.4611ZM49.2208 22.888C48.6959 24.4416 48.1268 25.6543 47.5214 26.5423L48.3476 27.1057C49.0222 26.1163 49.6264 24.8117 50.1682 23.208L49.2208 22.888ZM47.5214 26.5423C46.9098 27.4393 46.2801 28.0472 45.6426 28.4035L46.1304 29.2765C46.9435 28.8221 47.6792 28.0861 48.3476 27.1057L47.5214 26.5423ZM45.6426 28.4035C44.9877 28.7695 44.3139 28.948 43.6145 28.948V29.948C44.4938 29.948 45.3346 29.7212 46.1304 29.2765L45.6426 28.4035ZM43.6145 28.948C42.5204 28.948 41.7837 28.6295 41.3078 28.0685L40.5452 28.7155C41.2639 29.5625 42.3193 29.948 43.6145 29.948V28.948ZM41.3078 28.0685C40.8086 27.4802 40.5305 26.6476 40.5305 25.512H39.5305C39.5305 26.8084 39.8498 27.8958 40.5452 28.7155L41.3078 28.0685ZM40.5305 25.512C40.5305 24.4159 40.7132 23.2599 41.0847 22.0419L40.1283 21.7501C39.7318 23.0495 39.5305 24.3041 39.5305 25.512H40.5305ZM41.0824 22.0493C41.4773 20.8232 41.997 19.6381 42.6421 18.4935L41.7709 18.0025C41.0934 19.2046 40.5464 20.4515 40.1306 21.7427L41.0824 22.0493ZM42.6387 18.4994C43.3061 17.3524 44.0443 16.3236 44.8527 15.4117L44.1043 14.7483C43.2487 15.7137 42.4723 16.797 41.7743 17.9966L42.6387 18.4994ZM44.8485 15.4163C45.6735 14.5087 46.5316 13.7959 47.4209 13.2705L46.9121 12.4095C45.9241 12.9934 44.9901 13.7739 44.1085 14.7437L44.8485 15.4163ZM47.4166 13.2729C48.3164 12.753 49.1696 12.508 49.9825 12.508V11.508C48.9607 11.508 47.9366 11.8176 46.9164 12.4071L47.4166 13.2729ZM49.9825 12.508C50.5309 12.508 50.9175 12.7117 51.2034 13.1246L52.0256 12.5554C51.5435 11.859 50.8421 11.508 49.9825 11.508V12.508ZM51.2034 13.1246C51.4806 13.5249 51.6149 14.234 51.4705 15.3689L52.4625 15.4951C52.6167 14.2833 52.5164 13.2644 52.0256 12.5554L51.2034 13.1246ZM51.7271 14.9931L51.3751 15.1851L51.8539 16.0629L52.2059 15.8709L51.7271 14.9931ZM52.1097 15.6928C52.2217 14.8864 52.1908 14.1787 51.9425 13.6268L51.0305 14.0372C51.1662 14.3386 51.2206 14.8256 51.1193 15.5552L52.1097 15.6928ZM51.9507 13.6463C51.8388 13.3665 51.6698 13.1199 51.4251 12.9451C51.1778 12.7685 50.8906 12.692 50.5905 12.692V13.692C50.7171 13.692 50.7925 13.7222 50.8439 13.7589C50.8979 13.7974 50.9635 13.8709 51.0223 14.0177L51.9507 13.6463ZM50.5905 12.692C49.9758 12.692 49.3779 13.0394 48.812 13.56L49.489 14.296C49.9898 13.8353 50.3518 13.692 50.5905 13.692V12.692ZM48.8045 13.567C48.2505 14.098 47.7122 14.8094 47.1858 15.6868L48.0432 16.2012C48.5408 15.372 49.0265 14.7393 49.4965 14.289L48.8045 13.567ZM47.1858 15.6868C46.6588 16.5649 46.168 17.5586 45.7122 18.6656L46.6368 19.0464C47.077 17.9774 47.5462 17.0297 48.0432 16.2012L47.1858 15.6868ZM45.7103 18.6703C45.2725 19.7648 44.9231 20.9227 44.6616 22.1432L45.6394 22.3528C45.8899 21.184 46.2232 20.0805 46.6387 19.0417L45.7103 18.6703ZM44.662 22.1414C44.3987 23.3483 44.2665 24.5467 44.2665 25.736H45.2665C45.2665 24.6213 45.3903 23.4944 45.639 22.3546L44.662 22.1414ZM44.2665 25.736C44.2665 26.4685 44.3375 27.0841 44.5433 27.4956L45.4377 27.0484C45.3448 26.8626 45.2665 26.4542 45.2665 25.736H44.2665ZM44.5433 27.4956C44.6476 27.7043 44.7933 27.8908 44.9931 28.024C45.1961 28.1594 45.4257 28.22 45.6625 28.22V27.22C45.6007 27.22 45.5689 27.206 45.5479 27.192C45.5237 27.1759 45.4827 27.1384 45.4377 27.0484L44.5433 27.4956ZM52.4581 12.9879C53.3836 12.9663 54.2262 12.9232 54.9852 12.8582L54.8998 11.8618C54.1655 11.9248 53.344 11.967 52.4349 11.9881L52.4581 12.9879ZM54.9993 12.8568C55.7615 12.7697 56.493 12.6497 57.1933 12.4964L56.9797 11.5195C56.3147 11.665 55.6168 11.7797 54.8857 11.8632L54.9993 12.8568ZM56.6068 11.8671L52.4148 26.1391L53.3742 26.4209L57.5662 12.1489L56.6068 11.8671ZM52.4073 26.1676C52.3412 26.454 52.2858 26.7308 52.2413 26.9978L53.2277 27.1622C53.2685 26.9172 53.3198 26.6607 53.3817 26.3924L52.4073 26.1676ZM52.2366 27.0347C52.2093 27.3346 52.2445 27.6383 52.3964 27.9041L53.2646 27.4079C53.2458 27.375 53.217 27.2947 53.2324 27.1253L52.2366 27.0347ZM52.4236 27.9466C52.6499 28.2633 52.9963 28.38 53.3425 28.38V27.38C53.2768 27.38 53.2469 27.3694 53.2389 27.3659C53.2352 27.3643 53.2351 27.3638 53.2367 27.365C53.2382 27.3663 53.2385 27.367 53.2374 27.3654L52.4236 27.9466ZM53.3425 28.38C53.8098 28.38 54.2378 28.116 54.6125 27.7648L53.9285 27.0352C53.6205 27.324 53.4299 27.38 53.3425 27.38V28.38ZM54.6241 27.7536C55.0519 27.3257 55.4339 26.5465 55.7978 25.5189L54.8552 25.1851C54.4938 26.2055 54.1718 26.7916 53.9169 27.0464L54.6241 27.7536ZM55.7947 25.5276L56.3707 23.9916L55.4343 23.6404L54.8583 25.1764L55.7947 25.5276ZM55.9025 24.316H56.5105V23.316H55.9025V24.316ZM56.0375 23.654L55.2375 25.99L56.1835 26.314L56.9835 23.978L56.0375 23.654ZM55.2373 25.9904C54.9542 26.8195 54.6034 27.416 54.2049 27.8144L54.9121 28.5216C55.4523 27.9813 55.8694 27.2339 56.1837 26.3136L55.2373 25.9904ZM54.2049 27.8144C53.7788 28.2406 53.3384 28.5264 52.8851 28.6896L53.2239 29.6304C53.8373 29.4096 54.3995 29.0341 54.9121 28.5216L54.2049 27.8144ZM52.8851 28.6896C52.4003 28.8641 51.9349 28.948 51.4865 28.948V29.948C52.0621 29.948 52.642 29.8399 53.2239 29.6304L52.8851 28.6896ZM51.4865 28.948C50.4745 28.948 49.8698 28.6507 49.5263 28.1666L48.7107 28.7454C49.3059 29.584 50.2798 29.948 51.4865 29.948V28.948ZM49.5316 28.1743C49.2825 27.809 49.1515 27.3424 49.1703 26.7436L48.1707 26.7124C48.1468 27.4789 48.3145 28.1644 48.7054 28.7377L49.5316 28.1743ZM49.1696 26.7582C49.2095 26.0999 49.3503 25.3369 49.5993 24.4654L48.6377 24.1906C48.3747 25.1111 48.2169 25.9481 48.1714 26.6978L49.1696 26.7582ZM49.5998 24.4633L52.9278 12.6233L51.9652 12.3527L48.6372 24.1927L49.5998 24.4633ZM68.9303 13.544L68.5639 13.2038L68.5634 13.2043L68.9303 13.544ZM67.3303 15.88L66.8909 15.6412L66.887 15.6487L67.3303 15.88ZM65.9222 19.176L65.4504 19.0104L65.4479 19.0179L65.9222 19.176ZM64.9303 22.952L64.4396 22.8555L64.4384 22.8618L64.9303 22.952ZM64.8343 28.296L64.387 28.5196L64.3925 28.5305L64.3985 28.5411L64.8343 28.296ZM67.2022 27.976L67.5627 28.3226L67.5691 28.3157L67.2022 27.976ZM68.7702 25.672L68.3291 25.4367L68.7702 25.672ZM70.1462 22.44L69.6744 22.2744L69.6728 22.2794L70.1462 22.44ZM71.1702 18.664L71.6609 18.7605L71.1702 18.664ZM71.2663 13.096L70.8321 13.3441L70.8386 13.3554L70.8457 13.3664L71.2663 13.096ZM60.6743 21.032L60.1891 20.9107L60.1871 20.9196L60.6743 21.032ZM61.9222 17.768L62.3659 17.9987L61.9222 17.768ZM63.9702 14.888L63.608 14.5434L63.6077 14.5436L63.9702 14.888ZM66.8823 12.808L67.0918 13.262L67.0956 13.2602L66.8823 12.808ZM74.4662 13.352L74.1127 13.7056L74.1169 13.7097L74.4662 13.352ZM75.4263 20.424L74.9411 20.3027L74.9391 20.3116L75.4263 20.424ZM74.2103 23.688L73.7666 23.4573L74.2103 23.688ZM72.1302 26.6L71.768 26.2554L71.7678 26.2556L72.1302 26.6ZM69.2182 28.68L69.4278 29.134L69.4316 29.1322L69.2182 28.68ZM61.6343 28.104L61.2807 28.4576L61.2849 28.4617L61.6343 28.104ZM70.4983 12.148C69.7999 12.148 69.1532 12.5691 68.5639 13.2038L69.2966 13.8842C69.8166 13.3242 70.2153 13.148 70.4983 13.148V12.148ZM68.5634 13.2043C67.9927 13.8206 67.4365 14.6374 66.8909 15.6412L67.7696 16.1188C68.2907 15.1599 68.8011 14.4194 69.2971 13.8837L68.5634 13.2043ZM66.887 15.6487C66.3623 16.6544 65.8838 17.7755 65.4505 19.0105L66.3941 19.3415C66.8141 18.1445 67.2742 17.0683 67.7735 16.1113L66.887 15.6487ZM65.4479 19.0179C65.0356 20.2547 64.6996 21.534 64.4397 22.8555L65.4208 23.0485C65.6729 21.7673 65.9982 20.5293 66.3966 19.3341L65.4479 19.0179ZM64.4384 22.8618C64.1989 24.1684 64.0783 25.4254 64.0783 26.632H65.0783C65.0783 25.492 65.1923 24.2956 65.4221 23.0422L64.4384 22.8618ZM64.0783 26.632C64.0783 27.4144 64.1615 28.0685 64.387 28.5196L65.2815 28.0724C65.1657 27.8408 65.0783 27.3856 65.0783 26.632H64.0783ZM64.3985 28.5411C64.6704 29.0245 65.1059 29.308 65.6663 29.308V28.308C65.5012 28.308 65.3821 28.2502 65.27 28.0509L64.3985 28.5411ZM65.6663 29.308C66.3534 29.308 66.9874 28.9209 67.5627 28.3226L66.8418 27.6294C66.3505 28.1405 65.9605 28.308 65.6663 28.308V29.308ZM67.5691 28.3157C68.1404 27.6988 68.6864 26.8917 69.2114 25.9073L68.3291 25.4367C67.8301 26.3723 67.3308 27.1012 66.8354 27.6363L67.5691 28.3157ZM69.2114 25.9073C69.738 24.9199 70.207 23.8171 70.6197 22.6006L69.6728 22.2794C69.2748 23.4523 68.8265 24.5041 68.3291 25.4367L69.2114 25.9073ZM70.618 22.6055C71.0528 21.3664 71.4004 20.0846 71.6609 18.7605L70.6797 18.5675C70.4281 19.8461 70.093 21.0816 69.6745 22.2745L70.618 22.6055ZM71.6609 18.7605C71.9225 17.4302 72.0543 16.1392 72.0543 14.888H71.0543C71.0543 16.0688 70.93 17.2951 70.6797 18.5675L71.6609 18.7605ZM72.0543 14.888C72.0543 14.4248 72.0296 14.0228 71.9759 13.6887C71.9236 13.3632 71.8375 13.06 71.6868 12.8256L70.8457 13.3664C70.887 13.4307 70.9449 13.5754 70.9886 13.8473C71.0309 14.1105 71.0543 14.4552 71.0543 14.888H72.0543ZM71.7004 12.8479C71.4415 12.395 71.0207 12.148 70.4983 12.148V13.148C70.6584 13.148 70.7496 13.1997 70.8321 13.3441L71.7004 12.8479ZM60.7902 24.168C60.7902 23.23 60.9126 22.2226 61.1614 21.1444L60.1871 20.9196C59.9239 22.06 59.7902 23.1434 59.7902 24.168H60.7902ZM61.1593 21.1533C61.4267 20.0838 61.8283 19.0324 62.3659 17.9987L61.4786 17.5373C60.9068 18.6369 60.4765 19.7615 60.1892 20.9107L61.1593 21.1533ZM62.3659 17.9987C62.8994 16.9726 63.555 16.0511 64.3327 15.2324L63.6077 14.5436C62.7642 15.4316 62.0544 16.43 61.4786 17.5373L62.3659 17.9987ZM64.3325 15.2326C65.1204 14.4043 66.0391 13.7478 67.0918 13.262L66.6727 12.354C65.5067 12.8922 64.4841 13.6224 63.608 14.5434L64.3325 15.2326ZM67.0956 13.2602C68.1525 12.7616 69.3372 12.508 70.6582 12.508V11.508C69.206 11.508 67.8733 11.7877 66.6689 12.3558L67.0956 13.2602ZM70.6582 12.508C72.2093 12.508 73.3359 12.9288 74.1127 13.7056L74.8198 12.9984C73.8046 11.9832 72.3925 11.508 70.6582 11.508V12.508ZM74.1169 13.7097C74.9081 14.4825 75.3423 15.6463 75.3423 17.288H76.3423C76.3423 15.4737 75.8591 14.0135 74.8156 12.9943L74.1169 13.7097ZM75.3423 17.288C75.3423 18.2224 75.2102 19.2267 74.9412 20.3027L75.9113 20.5453C76.197 19.4026 76.3423 18.3163 76.3423 17.288H75.3423ZM74.9391 20.3116C74.6931 21.3776 74.3029 22.426 73.7666 23.4573L74.6539 23.9187C75.2269 22.8167 75.6474 21.6891 75.9134 20.5364L74.9391 20.3116ZM73.7666 23.4573C73.2337 24.4822 72.5678 25.4146 71.768 26.2554L72.4925 26.9446C73.3567 26.0361 74.0775 25.0271 74.6539 23.9187L73.7666 23.4573ZM71.7678 26.2556C71.0023 27.0614 70.0831 27.7192 69.0049 28.2278L69.4316 29.1322C70.6147 28.5741 71.6369 27.8453 72.4928 26.9444L71.7678 26.2556ZM69.0087 28.226C67.9734 28.7039 66.7983 28.948 65.4743 28.948V29.948C66.9235 29.948 68.2444 29.6801 69.4278 29.134L69.0087 28.226ZM65.4743 28.948C63.9239 28.948 62.7833 28.5274 61.9836 27.7463L61.2849 28.4617C62.3198 29.4726 63.7393 29.948 65.4743 29.948V28.948ZM61.9878 27.7504C61.2155 26.9782 60.7902 25.8128 60.7902 24.168H59.7902C59.7902 25.9792 60.261 27.4378 61.2807 28.4576L61.9878 27.7504Z" fill="white" mask="url(#path-1-outside-1_86_643)"/>
<mask id="path-3-outside-2_86_643" maskUnits="userSpaceOnUse" x="0" y="35" width="80" height="23" fill="black">
<rect fill="white" y="35" width="80" height="23"/>
<path d="M7.196 57.42C5.16133 57.42 3.53733 56.9533 2.324 56.02C1.11067 55.0867 0.504 53.752 0.504 52.016C0.504 51.456 0.569333 50.8867 0.7 50.308C1.204 47.9933 2.28667 46.22 3.948 44.988C5.60933 43.756 7.71867 43.14 10.276 43.14C11.396 43.14 12.404 43.252 13.3 43.476C14.2147 43.6813 14.9427 43.98 15.484 44.372L14.672 48.208C14.1867 47.7973 13.5707 47.4893 12.824 47.284C12.096 47.0787 11.3027 46.976 10.444 46.976C9.24933 46.976 8.232 47.256 7.392 47.816C6.552 48.3573 6.01067 49.188 5.768 50.308C5.69333 50.6253 5.656 50.9613 5.656 51.316C5.656 52.1187 5.92667 52.7067 6.468 53.08C7.028 53.4347 7.868 53.612 8.988 53.612C10.78 53.612 12.4413 53.1827 13.972 52.324L13.16 56.132C11.5547 56.9907 9.56667 57.42 7.196 57.42ZM23.3498 36.308H28.2778L26.4298 44.932C27.1578 44.3347 27.9418 43.8867 28.7818 43.588C29.6218 43.2893 30.4711 43.14 31.3298 43.14C32.8418 43.14 33.9711 43.5133 34.7178 44.26C35.4644 44.988 35.8378 45.968 35.8378 47.2C35.8378 47.7413 35.7911 48.208 35.6978 48.6L33.9338 57H29.0058L30.6298 49.244C30.6858 48.9267 30.7138 48.656 30.7138 48.432C30.7138 47.4613 30.1631 46.976 29.0618 46.976C28.4271 46.976 27.8111 47.1253 27.2138 47.424C26.6351 47.7227 26.1031 48.1613 25.6178 48.74L23.8818 57H18.9537L23.3498 36.308ZM46.4029 57.42C44.6295 57.42 43.2109 56.9347 42.1469 55.964C41.1015 54.9933 40.5789 53.6773 40.5789 52.016C40.5789 51.568 40.6442 50.9987 40.7749 50.308C41.0735 48.908 41.6335 47.6667 42.4549 46.584C43.2949 45.4827 44.3122 44.6333 45.5069 44.036C46.7202 43.4387 48.0362 43.14 49.4549 43.14C50.3882 43.14 51.2189 43.2707 51.9469 43.532C52.6749 43.7933 53.2629 44.1667 53.7109 44.652L53.9629 43.56H58.8909L56.0349 57H51.2749L51.5549 55.656C50.0429 56.832 48.3255 57.42 46.4029 57.42ZM48.5029 53.612C49.2495 53.612 49.9589 53.4253 50.6309 53.052C51.3215 52.66 51.8629 52.1373 52.2549 51.484L52.7589 49.104C52.6469 48.4507 52.3295 47.9373 51.8069 47.564C51.3029 47.172 50.6775 46.976 49.9309 46.976C48.9229 46.976 48.0455 47.2747 47.2989 47.872C46.5522 48.4693 46.0669 49.2813 45.8429 50.308C45.7682 50.6253 45.7309 50.9707 45.7309 51.344C45.7309 52.856 46.6549 53.612 48.5029 53.612ZM69.3237 57.42C67.1583 57.42 65.4597 56.9253 64.2277 55.936C63.0143 54.928 62.4077 53.5747 62.4077 51.876C62.4077 51.372 62.4637 50.84 62.5757 50.28C63.0237 48.1147 64.097 46.388 65.7957 45.1C67.4943 43.7933 69.6877 43.14 72.3757 43.14C74.5597 43.14 76.2583 43.6533 77.4717 44.68C78.7037 45.688 79.3197 47.0413 79.3197 48.74C79.3197 49.2253 79.2637 49.7387 79.1517 50.28C78.685 52.4453 77.593 54.1813 75.8757 55.488C74.177 56.776 71.993 57.42 69.3237 57.42ZM70.1357 53.584C71.125 53.584 71.9743 53.2947 72.6837 52.716C73.4117 52.1187 73.8877 51.3067 74.1117 50.28C74.1863 49.9627 74.2237 49.6173 74.2237 49.244C74.2237 47.732 73.337 46.976 71.5637 46.976C70.5743 46.976 69.7157 47.2747 68.9877 47.872C68.2783 48.4507 67.821 49.2533 67.6157 50.28C67.5223 50.7093 67.4757 51.0733 67.4757 51.372C67.4757 52.8467 68.3623 53.584 70.1357 53.584Z"/>
</mask>
<path d="M7.196 57.42C5.16133 57.42 3.53733 56.9533 2.324 56.02C1.11067 55.0867 0.504 53.752 0.504 52.016C0.504 51.456 0.569333 50.8867 0.7 50.308C1.204 47.9933 2.28667 46.22 3.948 44.988C5.60933 43.756 7.71867 43.14 10.276 43.14C11.396 43.14 12.404 43.252 13.3 43.476C14.2147 43.6813 14.9427 43.98 15.484 44.372L14.672 48.208C14.1867 47.7973 13.5707 47.4893 12.824 47.284C12.096 47.0787 11.3027 46.976 10.444 46.976C9.24933 46.976 8.232 47.256 7.392 47.816C6.552 48.3573 6.01067 49.188 5.768 50.308C5.69333 50.6253 5.656 50.9613 5.656 51.316C5.656 52.1187 5.92667 52.7067 6.468 53.08C7.028 53.4347 7.868 53.612 8.988 53.612C10.78 53.612 12.4413 53.1827 13.972 52.324L13.16 56.132C11.5547 56.9907 9.56667 57.42 7.196 57.42ZM23.3498 36.308H28.2778L26.4298 44.932C27.1578 44.3347 27.9418 43.8867 28.7818 43.588C29.6218 43.2893 30.4711 43.14 31.3298 43.14C32.8418 43.14 33.9711 43.5133 34.7178 44.26C35.4644 44.988 35.8378 45.968 35.8378 47.2C35.8378 47.7413 35.7911 48.208 35.6978 48.6L33.9338 57H29.0058L30.6298 49.244C30.6858 48.9267 30.7138 48.656 30.7138 48.432C30.7138 47.4613 30.1631 46.976 29.0618 46.976C28.4271 46.976 27.8111 47.1253 27.2138 47.424C26.6351 47.7227 26.1031 48.1613 25.6178 48.74L23.8818 57H18.9537L23.3498 36.308ZM46.4029 57.42C44.6295 57.42 43.2109 56.9347 42.1469 55.964C41.1015 54.9933 40.5789 53.6773 40.5789 52.016C40.5789 51.568 40.6442 50.9987 40.7749 50.308C41.0735 48.908 41.6335 47.6667 42.4549 46.584C43.2949 45.4827 44.3122 44.6333 45.5069 44.036C46.7202 43.4387 48.0362 43.14 49.4549 43.14C50.3882 43.14 51.2189 43.2707 51.9469 43.532C52.6749 43.7933 53.2629 44.1667 53.7109 44.652L53.9629 43.56H58.8909L56.0349 57H51.2749L51.5549 55.656C50.0429 56.832 48.3255 57.42 46.4029 57.42ZM48.5029 53.612C49.2495 53.612 49.9589 53.4253 50.6309 53.052C51.3215 52.66 51.8629 52.1373 52.2549 51.484L52.7589 49.104C52.6469 48.4507 52.3295 47.9373 51.8069 47.564C51.3029 47.172 50.6775 46.976 49.9309 46.976C48.9229 46.976 48.0455 47.2747 47.2989 47.872C46.5522 48.4693 46.0669 49.2813 45.8429 50.308C45.7682 50.6253 45.7309 50.9707 45.7309 51.344C45.7309 52.856 46.6549 53.612 48.5029 53.612ZM69.3237 57.42C67.1583 57.42 65.4597 56.9253 64.2277 55.936C63.0143 54.928 62.4077 53.5747 62.4077 51.876C62.4077 51.372 62.4637 50.84 62.5757 50.28C63.0237 48.1147 64.097 46.388 65.7957 45.1C67.4943 43.7933 69.6877 43.14 72.3757 43.14C74.5597 43.14 76.2583 43.6533 77.4717 44.68C78.7037 45.688 79.3197 47.0413 79.3197 48.74C79.3197 49.2253 79.2637 49.7387 79.1517 50.28C78.685 52.4453 77.593 54.1813 75.8757 55.488C74.177 56.776 71.993 57.42 69.3237 57.42ZM70.1357 53.584C71.125 53.584 71.9743 53.2947 72.6837 52.716C73.4117 52.1187 73.8877 51.3067 74.1117 50.28C74.1863 49.9627 74.2237 49.6173 74.2237 49.244C74.2237 47.732 73.337 46.976 71.5637 46.976C70.5743 46.976 69.7157 47.2747 68.9877 47.872C68.2783 48.4507 67.821 49.2533 67.6157 50.28C67.5223 50.7093 67.4757 51.0733 67.4757 51.372C67.4757 52.8467 68.3623 53.584 70.1357 53.584Z" fill="#030711"/>
<path d="M2.324 56.02L2.62886 55.6237L2.324 56.02ZM0.7 50.308L1.18773 50.4181L1.18855 50.4144L0.7 50.308ZM13.3 43.476L13.1787 43.9612L13.1905 43.9639L13.3 43.476ZM15.484 44.372L15.9732 44.4755L16.0405 44.1576L15.7773 43.967L15.484 44.372ZM14.672 48.208L14.349 48.5897L14.9879 49.1302L15.1612 48.3115L14.672 48.208ZM12.824 47.284L12.6883 47.7652L12.6914 47.7661L12.824 47.284ZM7.392 47.816L7.66288 48.2363L7.66935 48.232L7.392 47.816ZM5.768 50.308L6.25479 50.4225L6.25666 50.4139L5.768 50.308ZM6.468 53.08L6.18413 53.4916L6.1922 53.4972L6.20047 53.5024L6.468 53.08ZM13.972 52.324L14.461 52.4283L14.6916 51.347L13.7274 51.8879L13.972 52.324ZM13.16 56.132L13.3958 56.5729L13.6006 56.4634L13.649 56.2363L13.16 56.132ZM7.196 56.92C5.23541 56.92 3.72988 56.4706 2.62886 55.6237L2.01914 56.4163C3.34479 57.436 5.08726 57.92 7.196 57.92V56.92ZM2.62886 55.6237C1.5562 54.7986 1.004 53.6205 1.004 52.016H0.00400003C0.00400003 53.8835 0.66513 55.3748 2.01914 56.4163L2.62886 55.6237ZM1.004 52.016C1.004 51.4952 1.06473 50.9628 1.18772 50.4181L0.212279 50.1979C0.0739334 50.8105 0.00400003 51.4168 0.00400003 52.016H1.004ZM1.18855 50.4144C1.67079 48.1997 2.69576 46.5391 4.24583 45.3896L3.65017 44.5864C1.87758 45.9009 0.737213 47.787 0.211447 50.2016L1.18855 50.4144ZM4.24583 45.3896C5.80237 44.2353 7.80013 43.64 10.276 43.64V42.64C7.63721 42.64 5.4163 43.2767 3.65017 44.5864L4.24583 45.3896ZM10.276 43.64C11.3634 43.64 12.3297 43.7488 13.1787 43.9611L13.4213 42.9909C12.4783 42.7552 11.4286 42.64 10.276 42.64V43.64ZM13.1905 43.9639C14.0637 44.1599 14.7218 44.4374 15.1907 44.777L15.7773 43.967C15.1635 43.5226 14.3656 43.2028 13.4095 42.9881L13.1905 43.9639ZM14.9948 44.2685L14.1828 48.1045L15.1612 48.3115L15.9732 44.4755L14.9948 44.2685ZM14.995 47.8263C14.4435 47.3597 13.7583 47.0224 12.9566 46.8019L12.6914 47.7661C13.383 47.9563 13.9299 48.235 14.349 48.5897L14.995 47.8263ZM12.9597 46.8028C12.1821 46.5834 11.3425 46.476 10.444 46.476V47.476C11.2629 47.476 12.0099 47.5739 12.6883 47.7652L12.9597 46.8028ZM10.444 46.476C9.16907 46.476 8.0509 46.7758 7.11465 47.4L7.66935 48.232C8.4131 47.7362 9.3296 47.476 10.444 47.476V46.476ZM7.12115 47.3957C6.15317 48.0195 5.5456 48.9732 5.27934 50.2021L6.25666 50.4139C6.47573 49.4028 6.95083 48.6951 7.66285 48.2363L7.12115 47.3957ZM5.28129 50.1935C5.19706 50.5515 5.156 50.9261 5.156 51.316H6.156C6.156 50.9965 6.18961 50.6992 6.25471 50.4225L5.28129 50.1935ZM5.156 51.316C5.156 52.2419 5.47678 53.0038 6.18413 53.4916L6.75187 52.6684C6.37655 52.4096 6.156 51.9955 6.156 51.316H5.156ZM6.20047 53.5024C6.87842 53.9318 7.83134 54.112 8.988 54.112V53.112C7.90466 53.112 7.17758 52.9376 6.73553 52.6576L6.20047 53.5024ZM8.988 54.112C10.8638 54.112 12.6096 53.6616 14.2166 52.7601L13.7274 51.8879C12.2731 52.7038 10.6962 53.112 8.988 53.112V54.112ZM13.483 52.2197L12.671 56.0277L13.649 56.2363L14.461 52.4283L13.483 52.2197ZM12.9242 55.6911C11.41 56.501 9.50847 56.92 7.196 56.92V57.92C9.62486 57.92 11.6993 57.4803 13.3958 56.5729L12.9242 55.6911ZM23.3498 36.308V35.808H22.9448L22.8607 36.2041L23.3498 36.308ZM28.2778 36.308L28.7667 36.4128L28.8962 35.808H28.2778V36.308ZM26.4298 44.932L25.9408 44.8272L25.6412 46.2258L26.7469 45.3185L26.4298 44.932ZM28.7817 43.588L28.6142 43.1169L28.7817 43.588ZM34.7178 44.26L34.3642 44.6136L34.3687 44.618L34.7178 44.26ZM35.6978 48.6L35.2112 48.4841L35.2084 48.4972L35.6978 48.6ZM33.9338 57V57.5H34.3397L34.4231 57.1028L33.9338 57ZM29.0058 57L28.5164 56.8975L28.3902 57.5H29.0058V57ZM30.6298 49.244L31.1191 49.3465L31.1208 49.3387L31.1221 49.3309L30.6298 49.244ZM27.2138 47.424L26.9901 46.9767L26.9844 46.9797L27.2138 47.424ZM25.6178 48.74L25.2347 48.4187L25.1542 48.5146L25.1284 48.6372L25.6178 48.74ZM23.8818 57V57.5H24.2876L24.3711 57.1028L23.8818 57ZM18.9538 57L18.4647 56.8961L18.3364 57.5H18.9538V57ZM23.3498 36.808H28.2778V35.808H23.3498V36.808ZM27.7888 36.2032L25.9408 44.8272L26.9187 45.0368L28.7667 36.4128L27.7888 36.2032ZM26.7469 45.3185C27.4328 44.7557 28.1667 44.3374 28.9493 44.0591L28.6142 43.1169C27.7169 43.436 26.8827 43.9136 26.1126 44.5455L26.7469 45.3185ZM28.9493 44.0591C29.7376 43.7788 30.5303 43.64 31.3298 43.64V42.64C30.4118 42.64 29.5059 42.7998 28.6142 43.1169L28.9493 44.0591ZM31.3298 43.64C32.7668 43.64 33.7454 43.9948 34.3642 44.6136L35.0713 43.9064C34.1968 43.0319 32.9167 42.64 31.3298 42.64V43.64ZM34.3687 44.618C35.0014 45.2349 35.3378 46.0764 35.3378 47.2H36.3378C36.3378 45.8596 35.9274 44.7411 35.0668 43.902L34.3687 44.618ZM35.3378 47.2C35.3378 47.7147 35.2932 48.1405 35.2113 48.4842L36.1842 48.7158C36.289 48.2755 36.3378 47.7679 36.3378 47.2H35.3378ZM35.2084 48.4972L33.4444 56.8972L34.4231 57.1028L36.1871 48.7028L35.2084 48.4972ZM33.9338 56.5H29.0058V57.5H33.9338V56.5ZM29.4951 57.1025L31.1191 49.3465L30.1404 49.1415L28.5164 56.8975L29.4951 57.1025ZM31.1221 49.3309C31.1812 48.9962 31.2138 48.6947 31.2138 48.432H30.2138C30.2138 48.6173 30.1903 48.8572 30.1374 49.1571L31.1221 49.3309ZM31.2138 48.432C31.2138 47.8521 31.0463 47.3306 30.6314 46.9649C30.2284 46.6098 29.675 46.476 29.0618 46.476V47.476C29.5498 47.476 29.8224 47.5849 29.9701 47.7151C30.1058 47.8347 30.2138 48.0413 30.2138 48.432H31.2138ZM29.0618 46.476C28.3454 46.476 27.6532 46.6453 26.9901 46.9768L27.4374 47.8712C27.969 47.6054 28.5088 47.476 29.0618 47.476V46.476ZM26.9844 46.9797C26.3382 47.3132 25.7559 47.7973 25.2347 48.4187L26.0008 49.0613C26.4503 48.5254 26.932 48.1321 27.4431 47.8683L26.9844 46.9797ZM25.1284 48.6372L23.3924 56.8972L24.3711 57.1028L26.1071 48.8428L25.1284 48.6372ZM23.8818 56.5H18.9538V57.5H23.8818V56.5ZM19.4428 57.1039L23.8388 36.4119L22.8607 36.2041L18.4647 56.8961L19.4428 57.1039ZM42.1469 55.964L41.8066 56.3304L41.8099 56.3334L42.1469 55.964ZM40.7749 50.308L40.2857 50.2037L40.2836 50.2151L40.7749 50.308ZM42.4549 46.584L42.0573 46.2808L42.0565 46.2818L42.4549 46.584ZM45.5069 44.036L45.286 43.5874L45.2833 43.5888L45.5069 44.036ZM51.9469 43.532L52.1158 43.0614L51.9469 43.532ZM53.7109 44.652L53.3435 44.9911L53.9853 45.6864L54.1981 44.7644L53.7109 44.652ZM53.9629 43.56V43.06H53.5651L53.4757 43.4476L53.9629 43.56ZM58.8909 43.56L59.38 43.6639L59.5083 43.06H58.8909V43.56ZM56.0349 57V57.5H56.4398L56.524 57.1039L56.0349 57ZM51.2749 57L50.7854 56.898L50.66 57.5H51.2749V57ZM51.5549 55.656L52.0444 55.758L52.3219 54.426L51.2479 55.2613L51.5549 55.656ZM50.6309 53.052L50.8737 53.4891L50.8777 53.4868L50.6309 53.052ZM52.2549 51.484L52.6836 51.7412L52.7267 51.6695L52.744 51.5876L52.2549 51.484ZM52.7589 49.104L53.248 49.2076L53.2679 49.1139L53.2517 49.0195L52.7589 49.104ZM51.8069 47.564L51.4999 47.9587L51.508 47.9649L51.5163 47.9709L51.8069 47.564ZM47.2989 47.872L46.9865 47.4816L47.2989 47.872ZM45.8429 50.308L46.3296 50.4225L46.3314 50.4146L45.8429 50.308ZM46.4029 56.92C44.724 56.92 43.4356 56.4629 42.4839 55.5946L41.8099 56.3334C42.9861 57.4064 44.535 57.92 46.4029 57.92V56.92ZM42.4871 55.5976C41.5606 54.7373 41.0789 53.5633 41.0789 52.016H40.0789C40.0789 53.7913 40.6424 55.2493 41.8066 56.3304L42.4871 55.5976ZM41.0789 52.016C41.0789 51.6115 41.1384 51.0761 41.2662 50.4009L40.2836 50.2151C40.15 50.9212 40.0789 51.5245 40.0789 52.016H41.0789ZM41.2639 50.4123C41.5481 49.0802 42.0786 47.9072 42.8532 46.8862L42.0565 46.2818C41.1885 47.4261 40.599 48.7358 40.2859 50.2037L41.2639 50.4123ZM42.8524 46.8872C43.648 45.8442 44.6066 45.0452 45.7305 44.4832L45.2833 43.5888C44.0178 44.2215 42.9418 45.1211 42.0573 46.2808L42.8524 46.8872ZM45.7277 44.4846C46.869 43.9227 48.1089 43.64 49.4549 43.64V42.64C47.9635 42.64 46.5714 42.9546 45.286 43.5874L45.7277 44.4846ZM49.4549 43.64C50.3422 43.64 51.114 43.7643 51.7779 44.0026L52.1158 43.0614C51.3237 42.7771 50.4342 42.64 49.4549 42.64V43.64ZM51.7779 44.0026C52.4431 44.2414 52.9587 44.5743 53.3435 44.9911L54.0783 44.3129C53.567 43.759 52.9066 43.3453 52.1158 43.0614L51.7779 44.0026ZM54.1981 44.7644L54.4501 43.6724L53.4757 43.4476L53.2237 44.5396L54.1981 44.7644ZM53.9629 44.06H58.8909V43.06H53.9629V44.06ZM58.4018 43.4561L55.5458 56.8961L56.524 57.1039L59.38 43.6639L58.4018 43.4561ZM56.0349 56.5H51.2749V57.5H56.0349V56.5ZM51.7644 57.102L52.0444 55.758L51.0654 55.554L50.7854 56.898L51.7644 57.102ZM51.2479 55.2613C49.824 56.3688 48.2148 56.92 46.4029 56.92V57.92C48.4363 57.92 50.2617 57.2952 51.8618 56.0507L51.2479 55.2613ZM48.5029 54.112C49.3371 54.112 50.1297 53.9024 50.8737 53.4891L50.3881 52.6149C49.788 52.9483 49.162 53.112 48.5029 53.112V54.112ZM50.8777 53.4868C51.64 53.0542 52.2454 52.4717 52.6836 51.7412L51.8261 51.2268C51.4804 51.803 51.0031 52.2658 50.3841 52.6172L50.8777 53.4868ZM52.744 51.5876L53.248 49.2076L52.2697 49.0004L51.7657 51.3804L52.744 51.5876ZM53.2517 49.0195C53.1182 48.2409 52.7312 47.6098 52.0975 47.1571L51.5163 47.9709C51.9279 48.2649 52.1755 48.6604 52.2661 49.1885L53.2517 49.0195ZM52.1138 47.1693C51.5078 46.6979 50.7691 46.476 49.9309 46.476V47.476C50.586 47.476 51.098 47.6461 51.4999 47.9587L52.1138 47.1693ZM49.9309 46.476C48.816 46.476 47.8269 46.8093 46.9865 47.4816L47.6112 48.2624C48.2642 47.7401 49.0298 47.476 49.9309 47.476V46.476ZM46.9865 47.4816C46.1413 48.1577 45.6002 49.0746 45.3544 50.2014L46.3314 50.4146C46.5335 49.4881 46.9631 48.7809 47.6112 48.2624L46.9865 47.4816ZM45.3562 50.1935C45.2715 50.5533 45.2309 50.9376 45.2309 51.344H46.2309C46.2309 51.0038 46.2649 50.6974 46.3296 50.4225L45.3562 50.1935ZM45.2309 51.344C45.2309 52.2065 45.4993 52.9346 46.1073 53.432C46.696 53.9137 47.5234 54.112 48.5029 54.112V53.112C47.6343 53.112 47.0757 52.9323 46.7405 52.658C46.4245 52.3994 46.2309 51.9935 46.2309 51.344H45.2309ZM64.2277 55.936L63.9081 56.3206L63.9146 56.3259L64.2277 55.936ZM62.5757 50.28L62.086 50.1787L62.0854 50.1819L62.5757 50.28ZM65.7957 45.1L66.0978 45.4984L66.1005 45.4963L65.7957 45.1ZM77.4717 44.68L77.1486 45.0617L77.155 45.067L77.4717 44.68ZM79.1517 50.28L79.6404 50.3853L79.6413 50.3813L79.1517 50.28ZM75.8757 55.488L76.1778 55.8864L76.1784 55.8859L75.8757 55.488ZM72.6837 52.716L72.9997 53.1034L73.0008 53.1025L72.6837 52.716ZM74.1117 50.28L73.6249 50.1655L73.6231 50.1734L74.1117 50.28ZM68.9877 47.872L69.3037 48.2594L69.3048 48.2585L68.9877 47.872ZM67.6157 50.28L68.1043 50.3862L68.1059 50.3781L67.6157 50.28ZM69.3237 56.92C67.2304 56.92 65.6561 56.4418 64.5407 55.5461L63.9146 56.3259C65.2632 57.4089 67.0863 57.92 69.3237 57.92V56.92ZM64.5472 55.5514C63.4578 54.6464 62.9077 53.439 62.9077 51.876H61.9077C61.9077 53.7103 62.5708 55.2096 63.9081 56.3206L64.5472 55.5514ZM62.9077 51.876C62.9077 51.4089 62.9596 50.91 63.0659 50.3781L62.0854 50.1819C61.9677 50.77 61.9077 51.3351 61.9077 51.876H62.9077ZM63.0653 50.3813C63.4898 48.3296 64.4993 46.7104 66.0978 45.4984L65.4936 44.7016C63.6946 46.0656 62.5575 47.8997 62.086 50.1787L63.0653 50.3813ZM66.1005 45.4963C67.6916 44.2724 69.7694 43.64 72.3757 43.64V42.64C69.6059 42.64 67.2971 43.3143 65.4908 44.7037L66.1005 45.4963ZM72.3757 43.64C74.4855 43.64 76.0544 44.1358 77.1487 45.0617L77.7946 44.2983C76.4622 43.1709 74.6338 42.64 72.3757 42.64V43.64ZM77.155 45.067C78.2623 45.9729 78.8197 47.1798 78.8197 48.74H79.8197C79.8197 46.9029 79.145 45.4031 77.7883 44.293L77.155 45.067ZM78.8197 48.74C78.8197 49.187 78.7681 49.6662 78.662 50.1787L79.6413 50.3813C79.7592 49.8111 79.8197 49.2637 79.8197 48.74H78.8197ZM78.6629 50.1747C78.2206 52.2268 77.1926 53.8577 75.5729 55.0901L76.1784 55.8859C77.9934 54.505 79.1494 52.6639 79.6404 50.3853L78.6629 50.1747ZM75.5736 55.0896C73.9817 56.2966 71.9118 56.92 69.3237 56.92V57.92C72.0741 57.92 74.3723 57.2554 76.1778 55.8864L75.5736 55.0896ZM70.1357 54.084C71.2302 54.084 72.1937 53.761 72.9997 53.1034L72.3676 52.3286C71.7549 52.8284 71.0198 53.084 70.1357 53.084V54.084ZM73.0008 53.1025C73.8259 52.4255 74.3551 51.5097 74.6002 50.3866L73.6231 50.1734C73.4202 51.1036 72.9974 51.8118 72.3665 52.3295L73.0008 53.1025ZM74.5984 50.3945C74.683 50.0347 74.7237 49.6504 74.7237 49.244H73.7237C73.7237 49.5842 73.6896 49.8906 73.6249 50.1655L74.5984 50.3945ZM74.7237 49.244C74.7237 48.3882 74.469 47.6621 73.8831 47.1625C73.3124 46.676 72.5096 46.476 71.5637 46.476V47.476C72.391 47.476 72.9183 47.654 73.2343 47.9235C73.535 48.1799 73.7237 48.5878 73.7237 49.244H74.7237ZM71.5637 46.476C70.465 46.476 69.4927 46.8108 68.6705 47.4855L69.3048 48.2585C69.9386 47.7385 70.6837 47.476 71.5637 47.476V46.476ZM68.6716 47.4846C67.8596 48.147 67.35 49.0588 67.1254 50.1819L68.1059 50.3781C68.292 49.4479 68.697 48.7544 69.3037 48.2594L68.6716 47.4846ZM67.1271 50.1738C67.0293 50.6233 66.9757 51.0252 66.9757 51.372H67.9757C67.9757 51.1215 68.0153 50.7953 68.1042 50.3862L67.1271 50.1738ZM66.9757 51.372C66.9757 52.2131 67.2329 52.9265 67.821 53.4154C68.3913 53.8897 69.1921 54.084 70.1357 54.084V53.084C69.3059 53.084 68.7767 52.9096 68.4604 52.6466C68.1617 52.3982 67.9757 52.0055 67.9757 51.372H66.9757Z" fill="white" mask="url(#path-3-outside-2_86_643)"/>
</svg>
